<?xml version="1.0" standalone="no"?>
<!DOCTYPE svg PUBLIC "-//W3C//DTD SVG 20010904//EN"
 "http://www.w3.org/TR/2001/REC-SVG-20010904/DTD/svg10.dtd">
<svg version="1.0" xmlns="http://www.w3.org/2000/svg"
 width="300.000000pt" height="300.000000pt" viewBox="0 0 300.000000 300.000000"
 preserveAspectRatio="xMidYMid meet">
<metadata>
Created by potrace 1.10, written by Peter Selinger 2001-2011
</metadata>
<g transform="translate(0.000000,300.000000) scale(0.100000,-0.100000)"
fill="#000000" stroke="none">
<path d="M1325 2913 c-151 -20 -324 -72 -460 -140 -381 -191 -645 -524 -752
-948 -26 -103 -28 -123 -28 -325 0 -200 2 -222 27 -320 136 -539 516 -924
1046 -1060 229 -59 502 -53 737 15 409 119 757 431 917 824 349 854 -191 1808
-1102 1946 -86 13 -309 18 -385 8z m500 -62 c118 -30 161 -46 280 -103 146
-71 257 -149 377 -269 77 -76 183 -214 230 -299 66 -121 140 -328 153 -432 4
-29 9 -56 11 -59 6 -10 5 -361 -1 -389 -3 -14 -8 -43 -12 -65 -3 -22 -14 -66
-24 -99 -11 -32 -19 -63 -19 -68 0 -21 -71 -178 -119 -262 -129 -225 -344
-429 -575 -543 -50 -24 -99 -49 -108 -54 -10 -5 -26 -9 -36 -9 -10 0 -22 -4
-27 -8 -13 -12 -105 -39 -190 -57 -39 -8 -129 -16 -202 -18 -192 -7 -294 6
-483 58 -227 62 -531 274 -676 470 -16 22 -35 46 -41 53 -18 19 -93 147 -125
216 -71 148 -119 342 -122 483 0 57 -5 103 -9 103 -5 0 -6 8 -3 18 3 9 8 55
10 102 10 165 52 313 142 495 74 152 165 277 284 392 79 76 230 181 335 232
61 29 117 56 125 60 19 10 111 36 173 50 26 6 66 15 90 21 61 14 113 17 287
14 133 -3 172 -7 275 -33z"/>
<path d="M1298 2516 c-78 -28 -123 -54 -159 -93 -46 -49 -63 -131 -34 -169 8
-10 15 -27 15 -38 0 -10 12 -41 26 -70 14 -28 27 -69 29 -91 2 -33 10 -46 49
-80 61 -53 60 -65 -5 -62 -48 3 -152 -23 -174 -44 -5 -5 -49 -9 -98 -9 l-90 0
6 49 c7 61 24 90 57 98 14 3 41 16 60 28 37 23 79 65 65 65 -4 0 -3 6 3 13 9
11 9 80 1 117 -4 16 -37 49 -51 51 -13 2 -28 6 -30 9 -11 8 -88 3 -110 -8 -15
-7 -37 -14 -49 -15 -25 -2 -90 -73 -83 -91 12 -32 -43 -133 -153 -281 -29 -38
-53 -77 -53 -85 0 -9 -4 -20 -9 -26 -8 -7 -17 -183 -12 -235 2 -32 63 -77 149
-112 124 -50 159 -56 307 -54 l132 2 118 -115 c65 -63 138 -134 163 -157 l45
-43 -7 -72 c-8 -97 -16 -104 -118 -106 -178 -4 -431 -32 -467 -51 -12 -7 -21
-9 -21 -6 0 3 -14 -2 -31 -10 -45 -24 -31 -27 42 -11 95 22 246 37 440 44
l174 7 9 100 c10 124 4 137 -109 234 -46 39 -115 106 -154 147 l-70 76 -125
-7 c-85 -5 -141 -4 -178 5 -82 18 -201 68 -240 100 l-35 29 4 98 c3 54 9 114
15 133 6 19 43 80 82 134 105 148 135 203 129 240 -3 25 2 38 27 65 21 23 37
32 50 28 11 -3 23 -1 26 4 3 5 16 9 29 9 13 0 27 5 30 10 4 7 14 6 28 -2 12
-6 30 -12 41 -12 32 -1 54 -45 49 -94 -6 -50 -55 -108 -101 -117 -15 -4 -36
-8 -47 -10 -30 -6 -66 -123 -58 -186 l5 -46 30 15 c22 10 49 13 95 9 60 -4 72
-2 137 29 73 35 115 41 163 23 85 -32 185 -30 191 3 4 22 -33 32 -68 18 -34
-14 -70 1 -70 28 0 9 -11 26 -25 36 -14 10 -25 25 -25 32 0 7 -12 14 -27 16
-27 3 -28 5 -25 56 2 32 -2 52 -8 52 -12 0 -50 83 -50 110 0 9 -7 23 -15 30
-19 16 -19 73 0 111 44 85 237 158 342 130 62 -17 97 -65 141 -200 20 -62 46
-123 58 -136 11 -12 47 -33 80 -46 50 -20 73 -23 158 -21 78 2 111 -2 161 -18
63 -21 135 -77 135 -105 0 -8 17 -34 38 -58 88 -101 112 -172 112 -328 0 -123
4 -114 -121 -244 -51 -54 -71 -83 -84 -125 -22 -69 -60 -146 -112 -230 -22
-36 -44 -84 -47 -106 l-7 -41 68 -7 c37 -4 97 -14 132 -22 74 -17 92 -11 35
11 -21 9 -46 19 -54 23 -8 5 -35 9 -60 11 -27 1 -52 10 -64 21 -18 18 -18 20
-3 44 10 14 17 32 17 41 0 8 5 15 10 15 6 0 10 4 10 9 0 6 13 29 29 53 16 24
41 77 55 118 29 80 51 114 123 187 61 63 89 102 98 138 10 39 6 198 -6 254
-13 59 -53 140 -87 176 -15 17 -40 51 -55 77 -54 93 -131 129 -282 132 -128 3
-211 25 -248 65 -14 14 -39 67 -56 116 -43 122 -55 147 -92 183 -57 55 -154
66 -261 28z"/>
<path d="M1219 2311 c-38 -38 -52 -82 -29 -96 6 -3 10 -17 10 -31 0 -22 3 -24
23 -18 12 3 34 13 49 20 15 8 32 14 38 14 20 0 9 -45 -16 -69 -24 -23 -27 -23
-35 -8 -17 30 -27 18 -27 -33 0 -48 12 -66 24 -35 11 28 26 16 19 -15 -7 -33
-4 -35 27 -19 15 8 23 8 31 0 9 -9 6 -13 -11 -17 -26 -7 -30 -26 -4 -22 11 2
18 -4 20 -19 5 -33 35 -29 79 11 21 18 48 36 61 40 16 5 22 15 22 35 0 26 16
51 33 51 14 0 37 -68 37 -112 0 -69 9 -74 69 -38 28 17 51 34 51 38 0 3 -10
16 -22 29 -26 28 -18 41 14 19 23 -17 69 -21 82 -9 4 4 -17 19 -46 33 -31 15
-61 38 -73 57 -11 17 -32 33 -47 37 -14 3 -32 11 -39 19 -11 12 -16 11 -30 -6
-10 -13 -22 -18 -32 -14 -21 8 -22 27 -2 27 20 0 30 46 16 76 -8 18 -18 24
-34 22 -17 -2 -23 -11 -27 -43 -6 -49 -30 -56 -80 -23 -26 18 -40 38 -55 81
-24 70 -41 73 -96 18z m66 -42 c8 -35 0 -47 -35 -51 -20 -2 -26 2 -28 20 -4
25 23 62 44 62 7 0 15 -14 19 -31z m112 -125 c2 -7 -7 -25 -21 -40 l-25 -29
-1 27 c0 14 3 34 6 43 7 18 35 17 41 -1z m80 -6 l23 -21 -21 -36 c-19 -34 -88
-91 -108 -91 -6 0 -12 9 -16 20 -3 11 -18 29 -32 40 -16 12 -23 25 -19 36 5
14 9 13 32 -5 14 -11 31 -18 39 -15 17 7 45 49 45 68 0 12 11 22 29 25 3 1 15
-9 28 -21z m113 -23 c16 -8 34 -24 40 -35 10 -19 8 -85 -3 -96 -12 -12 -27 8
-27 37 0 33 -16 65 -45 91 -25 22 -5 24 35 3z"/>
<path d="M915 2240 c-4 -6 -15 -8 -26 -5 -11 4 -19 2 -19 -4 0 -6 -15 -11 -32
-11 -23 -1 -38 -8 -51 -25 -19 -27 -15 -48 7 -39 7 3 16 -2 19 -10 10 -26 26
-18 35 17 l9 32 8 -28 c9 -33 27 -31 35 4 l6 24 8 -22 c8 -26 24 -30 31 -8 16
49 18 50 27 13 12 -44 25 -48 38 -12 13 34 -3 64 -35 64 -13 0 -27 5 -30 10
-8 13 -22 13 -30 0z"/>
<path d="M925 2111 c-3 -5 -1 -12 5 -16 14 -9 52 4 45 16 -8 12 -42 12 -50 0z"/>
<path d="M752 2064 c-7 -14 -42 -66 -78 -117 -101 -140 -107 -155 -110 -274
-3 -114 1 -124 65 -150 24 -10 51 -13 88 -8 56 7 76 -9 27 -21 -53 -13 7 -27
136 -31 116 -4 128 -3 170 19 75 39 112 142 69 194 -10 12 -16 9 -35 -20 -50
-73 -149 -103 -240 -72 -26 9 -58 25 -70 37 -20 19 -26 19 -63 8 -23 -7 -44
-9 -47 -6 -4 4 7 22 23 41 43 48 81 132 89 197 3 30 16 76 27 102 l20 48 -22
15 c-12 9 -21 26 -21 40 0 31 -14 31 -28 -2z m17 -90 c-6 -16 -13 -45 -16 -64
-8 -69 -37 -146 -76 -204 -34 -50 -38 -61 -28 -82 10 -23 25 -29 65 -24 10 1
44 -11 75 -27 47 -23 68 -28 133 -28 70 0 80 3 123 33 26 18 49 31 52 28 13
-13 -11 -58 -43 -83 -33 -25 -46 -28 -136 -31 -96 -4 -100 -4 -127 22 -22 21
-40 27 -82 30 -107 7 -113 14 -111 144 2 75 6 91 37 150 34 65 130 181 140
170 3 -3 0 -18 -6 -34z"/>
<path d="M1883 2060 c-73 -17 -230 -129 -256 -181 -24 -49 -9 -124 33 -164 59
-57 172 -37 219 38 35 58 26 87 -31 101 -48 11 -35 36 20 36 26 0 68 7 94 15
67 20 69 3 7 -55 -50 -47 -52 -50 -47 -94 7 -56 57 -124 99 -133 34 -7 34 -7
10 -41 -10 -15 -42 -73 -70 -129 -61 -119 -99 -170 -161 -215 -25 -18 -50 -39
-56 -47 -9 -12 -14 -11 -33 8 -29 29 -75 25 -79 -6 -2 -12 -19 -32 -38 -43
-36 -23 -44 -44 -19 -54 8 -3 15 -17 15 -31 0 -18 5 -25 19 -25 10 0 21 -7 25
-15 3 -8 11 -15 17 -15 7 0 17 -8 24 -17 12 -16 14 -16 39 0 14 10 34 34 45
55 26 51 50 70 176 142 112 64 229 142 240 161 5 7 -5 8 -29 4 -54 -11 -44 9
17 34 119 48 150 99 150 246 1 107 -22 171 -82 238 -27 28 -55 66 -64 82 -47
92 -162 134 -284 105z m197 -54 c22 -14 48 -46 66 -80 l29 -56 -21 -15 c-35
-24 -35 -70 -3 -115 16 -22 38 -44 49 -50 14 -7 20 -21 20 -44 0 -24 8 -40 30
-59 27 -25 28 -28 17 -59 -19 -51 -28 -62 -82 -92 -68 -39 -85 -55 -85 -82 0
-23 -42 -58 -120 -100 -144 -78 -202 -120 -236 -171 -19 -29 -41 -53 -49 -53
-19 0 -85 58 -85 75 0 17 57 75 74 75 8 0 18 -4 21 -10 12 -20 41 -9 108 40
48 36 81 71 113 121 39 60 50 70 70 66 16 -3 32 5 54 27 52 53 100 117 100
135 0 22 -19 41 -43 41 -39 0 -157 122 -157 163 0 8 20 39 45 68 25 29 45 61
45 71 0 24 -33 39 -72 34 -101 -15 -152 -27 -160 -38 -15 -25 -8 -48 22 -70
38 -27 38 -42 0 -79 -26 -27 -35 -30 -82 -27 -47 3 -55 7 -75 37 -46 68 -23
127 75 191 127 84 149 92 226 86 50 -4 79 -12 106 -30z m117 -188 c22 -24 49
-105 39 -116 -9 -9 -63 47 -76 79 -12 29 -8 59 8 59 5 0 18 -10 29 -22z m81
-160 c14 -14 16 -58 3 -58 -14 0 -41 29 -41 44 0 26 19 33 38 14z m-148 -91
c0 -7 -14 -26 -31 -43 -17 -16 -42 -48 -57 -71 -45 -72 -58 -53 -17 26 33 66
105 126 105 88z"/>
<path d="M1130 1834 c-31 -14 -49 -30 -50 -45 0 -3 19 -14 42 -25 29 -13 51
-34 74 -70 61 -96 127 -134 229 -134 75 0 120 16 154 55 l31 35 -20 33 c-11
17 -20 40 -20 49 0 28 -22 68 -37 68 -8 0 -31 -9 -53 -20 -50 -26 -85 -25
-104 1 -17 25 -133 69 -179 69 -18 -1 -48 -8 -67 -16z m172 -49 c29 -14 66
-33 82 -42 25 -13 37 -14 82 -4 30 7 58 10 62 7 14 -8 35 -93 27 -105 -14 -24
-86 -51 -135 -51 -77 0 -137 37 -195 120 -37 53 -49 66 -70 73 -6 2 -4 11 5
21 18 23 69 16 142 -19z"/>
<path d="M849 1775 c-36 -20 -77 -99 -63 -122 16 -26 66 -27 113 -4 22 12 54
21 70 21 55 0 81 16 81 50 0 23 -7 35 -32 50 -39 24 -130 26 -169 5z m139 -31
c18 -13 21 -19 11 -30 -6 -8 -24 -14 -39 -14 -16 0 -48 -9 -73 -19 -48 -21
-72 -15 -61 15 20 56 112 83 162 48z"/>
<path d="M1620 1597 c-23 -77 -88 -117 -193 -117 -40 0 -53 -5 -84 -34 l-37
-34 -21 51 c-15 38 -33 61 -70 89 l-50 38 -7 -38 c-19 -105 -1 -150 100 -244
38 -35 59 -48 81 -48 41 0 59 32 30 52 -21 13 -20 14 22 56 24 23 37 42 29 42
-7 0 -27 -12 -42 -27 -26 -25 -28 -26 -28 -6 0 28 71 97 82 80 13 -21 9 -84
-7 -97 -9 -8 -14 -29 -13 -63 0 -29 -3 -65 -7 -80 -7 -25 -2 -34 36 -73 l44
-45 -1 -92 c0 -51 -4 -104 -7 -119 l-7 -28 175 0 175 0 73 54 c39 29 82 64 94
77 25 27 58 98 68 147 6 28 4 32 -14 32 -12 0 -65 -20 -119 -45 -93 -44 -99
-48 -121 -95 -29 -62 -46 -76 -98 -88 -37 -8 -46 -7 -72 13 -40 29 -65 61 -85
109 -22 52 -20 72 7 91 12 8 31 32 43 53 23 41 54 51 106 33 26 -9 36 -8 64 9
67 42 114 116 84 135 -19 12 -10 25 18 25 51 0 69 39 27 58 -36 17 -31 30 13
34 48 4 50 29 2 44 -43 14 -48 27 -14 42 14 7 24 18 21 25 -4 12 -13 13 -137
1 -57 -5 -84 -3 -111 9 l-36 15 -13 -41z m88 -41 c6 -19 6 -49 2 -68 l-7 -33
-11 28 c-18 44 -25 76 -18 92 9 25 25 17 34 -19z m140 12 c6 -7 10 -40 9 -72
-1 -49 -5 -60 -22 -68 -16 -7 -30 -4 -58 14 -34 21 -37 26 -35 68 1 25 3 50 5
56 5 15 88 17 101 2z m-202 -52 c26 -26 28 -69 5 -90 -29 -27 -27 -60 7 -82
34 -22 47 -35 54 -55 6 -14 -2 -16 -49 -15 -47 1 -58 -2 -70 -21 -30 -45 -50
-13 -31 49 10 35 9 41 -10 60 -13 13 -33 21 -52 20 -62 -2 -46 60 21 78 22 6
54 24 72 40 38 35 35 34 53 16z m-406 -37 c16 -23 32 -49 35 -58 3 -10 17 -24
30 -31 20 -11 25 -21 25 -52 0 -21 -4 -38 -8 -38 -13 0 -75 60 -106 103 -29
40 -39 72 -30 99 8 27 21 22 54 -23z m484 -44 c3 -9 18 -15 36 -15 16 0 30 -4
30 -10 0 -5 -4 -10 -9 -10 -24 0 -43 -34 -36 -67 8 -43 -7 -42 -28 2 -14 29
-22 35 -49 35 l-33 0 26 23 c15 12 29 30 32 40 8 21 23 22 31 2z m96 -78 c0
-25 -36 -62 -45 -47 -9 14 23 82 35 75 5 -3 10 -16 10 -28z m-325 3 c3 -5 18
-10 32 -10 20 0 24 -4 18 -17 -28 -68 -29 -73 -16 -109 17 -47 9 -53 -20 -12
-13 18 -32 39 -42 47 -18 13 -18 14 3 36 18 19 20 27 11 43 -6 12 -11 23 -11
26 0 10 18 7 25 -4z m-2 -173 c11 -10 16 -25 13 -34 -6 -14 -11 -12 -36 12
-34 32 -44 78 -12 54 9 -7 25 -22 35 -32z m512 -77 c10 -16 -24 -77 -64 -115
-35 -35 -70 -43 -62 -14 2 8 3 31 2 51 -1 34 3 38 47 61 53 28 68 31 77 17z
m-140 -77 c-4 -10 -12 -34 -17 -53 -5 -19 -14 -39 -19 -44 -13 -15 -11 58 3
89 13 29 45 36 33 8z m-265 -94 c43 -41 38 -51 -27 -43 -43 5 -64 27 -58 58 2
12 4 30 4 40 1 22 -2 23 81 -55z m209 -40 c-15 -10 -95 -6 -106 5 -3 3 0 6 8
6 8 0 30 8 49 19 34 18 35 18 49 -1 12 -17 12 -22 0 -29z"/>
<path d="M1905 869 l-30 -19 31 0 c23 0 33 5 37 20 6 24 1 24 -38 -1z"/>
<path d="M945 800 c-88 -4 -168 -8 -178 -9 -31 -2 -9 -18 35 -26 37 -6 40 -8
21 -15 -30 -12 -43 -41 -43 -97 0 -36 6 -55 21 -71 18 -20 26 -22 82 -16 69 8
67 8 119 0 23 -4 56 0 84 10 29 10 50 12 57 6 22 -18 113 -25 136 -10 27 17
26 26 -4 58 -22 23 -32 48 -34 87 -1 17 -40 26 -56 13 -11 -9 -19 -8 -37 4
-12 9 -25 16 -29 16 -13 0 -49 -38 -49 -53 0 -8 -9 -25 -19 -38 l-19 -24 -11
40 c-17 62 -23 67 -85 69 -50 2 -90 14 -55 17 8 1 34 3 59 5 25 2 135 6 244
10 159 4 201 3 207 -8 7 -11 9 -11 9 1 0 11 52 12 318 6 470 -11 484 -11 517
-1 29 9 29 10 -20 17 -70 11 -1077 18 -1270 9z m-1 -144 c1 -47 -3 -66 -11
-66 -14 0 -19 121 -6 133 12 12 15 -1 17 -67z m46 14 c0 -60 0 -60 30 -60 17
0 30 -5 30 -11 0 -6 -16 -9 -37 -7 l-38 3 -3 68 c-2 42 1 67 8 67 6 0 10 -25
10 -60z m166 -10 c28 -76 26 -70 15 -70 -5 0 -13 9 -16 20 -4 14 -15 20 -35
20 -19 0 -29 -6 -33 -20 -3 -11 -10 -20 -16 -20 -9 0 6 54 34 123 12 29 26 15
51 -53z m64 4 l0 -54 35 0 c19 0 35 -5 35 -11 0 -6 -17 -9 -42 -7 l-43 3 -3
68 c-2 46 1 67 8 62 5 -3 10 -31 10 -61z m-325 21 c0 -16 4 -36 8 -42 4 -7 3
-22 -3 -33 -8 -15 -21 -20 -50 -20 l-40 0 0 66 0 65 43 -3 c39 -3 42 -5 42
-33z"/>
<path d="M1110 681 c0 -5 -3 -16 -6 -25 -4 -12 0 -16 15 -16 22 0 25 8 15 34
-7 17 -24 22 -24 7z"/>
<path d="M830 691 c0 -16 6 -21 26 -21 33 0 30 33 -4 38 -17 3 -22 -2 -22 -17z"/>
<path d="M830 630 c0 -17 5 -21 28 -18 16 2 27 9 27 18 0 9 -11 16 -27 18 -23
3 -28 -1 -28 -18z"/>
<path d="M1345 725 c-32 -31 -35 -101 -6 -136 16 -20 26 -22 86 -21 48 2 74 7
87 19 17 15 19 15 36 0 22 -20 51 -22 87 -5 19 9 28 9 37 0 15 -15 80 -16 95
-1 8 8 17 8 33 -1 13 -7 37 -9 59 -6 46 9 65 9 125 1 28 -3 54 -1 61 5 9 7 21
7 40 -2 19 -9 31 -9 44 -1 11 7 23 8 32 2 35 -22 59 8 59 74 0 86 -31 111
-102 82 -9 -4 -26 -1 -38 5 -13 7 -26 8 -33 2 -12 -10 -81 -8 -128 3 -16 5
-30 1 -38 -9 -10 -12 -18 -13 -36 -4 -19 8 -28 8 -40 -2 -13 -11 -19 -10 -34
4 -18 16 -21 17 -45 1 -23 -16 -27 -16 -41 -1 -21 20 -39 20 -60 0 -12 -13
-19 -14 -30 -4 -12 10 -21 10 -45 0 -26 -11 -33 -10 -48 3 -12 11 -22 13 -34
6 -11 -6 -19 -6 -23 1 -12 20 -75 11 -100 -15z m92 -10 c2 -6 -12 -10 -29 -10
-32 0 -33 -1 -36 -47 -3 -47 -3 -48 27 -48 24 0 31 4 31 19 0 12 -8 21 -22 24
-17 3 -14 5 10 6 30 1 32 -1 32 -32 0 -32 -2 -34 -37 -35 -50 -2 -63 12 -63
69 0 35 5 51 18 58 20 13 64 10 69 -4z m56 -25 c-5 -29 -4 -30 31 -30 35 0 36
1 36 35 0 19 5 35 10 35 6 0 10 -30 10 -70 0 -40 -4 -70 -10 -70 -5 0 -10 14
-10 30 0 28 -3 30 -36 30 -35 0 -36 -1 -30 -30 4 -22 2 -30 -9 -30 -12 0 -15
14 -15 63 0 35 3 67 6 70 14 13 23 -5 17 -33z m196 -28 c12 -29 21 -57 21 -62
0 -18 -18 -10 -23 10 -3 14 -14 20 -32 20 -18 0 -29 -6 -32 -20 -3 -11 -10
-20 -15 -20 -12 0 -5 33 22 96 24 54 30 51 59 -24z m92 16 l34 -53 3 53 c4 77
22 63 22 -18 0 -38 -4 -70 -9 -70 -5 0 -24 23 -42 50 -18 28 -34 50 -37 50 -2
0 -2 -22 0 -50 4 -38 2 -50 -8 -50 -10 0 -14 17 -14 63 0 54 5 77 16 77 1 0
17 -24 35 -52z m168 -21 c24 -66 24 -67 12 -67 -5 0 -13 9 -16 20 -4 14 -15
20 -35 20 -19 0 -29 -6 -33 -20 -3 -11 -10 -20 -16 -20 -10 0 23 103 42 128
13 17 21 8 46 -61z m53 32 c16 -64 20 -66 37 -17 9 27 21 48 26 49 6 0 17 -23
26 -53 l15 -53 13 53 c12 48 31 80 31 51 0 -31 -34 -129 -43 -126 -6 2 -18 25
-28 53 l-16 49 -15 -49 c-8 -28 -20 -52 -26 -54 -5 -1 -17 22 -26 52 -9 30
-19 63 -23 72 -4 11 -2 15 7 12 8 -2 18 -20 22 -39z m188 -29 c0 -40 -4 -70
-10 -70 -6 0 -10 30 -10 70 0 40 4 70 10 70 6 0 10 -30 10 -70z"/>
<path d="M1642 671 c-10 -28 -9 -31 9 -31 20 0 25 24 10 48 -6 10 -11 6 -19
-17z"/>
<path d="M1901 677 c-14 -37 -14 -37 9 -37 21 0 24 12 10 45 -7 19 -9 18 -19
-8z"/>
</g>
</svg>
